<svg xmlns="http://www.w3.org/2000/svg" width="227" height="24"><defs><clipPath id="a"><path d="M0 0h227v24H0z"/></clipPath></defs><g data-name="カスタムサイズ – 1" clip-path="url(#a)" fill="#eee"><path data-name="パス 1" d="M.94.99v2.37h3.12V21H6.7V3.36h3.03V.99Zm14.4-.24a3.757 3.757 0 0 0-3.54 2.46c-.69 1.62-.96 3.87-.96 7.77 0 3.96.27 6.09.96 7.8a3.739 3.739 0 0 0 3.57 2.46 3.729 3.729 0 0 0 3.54-2.46c.69-1.68.96-3.87.96-7.62 0-4.11-.27-6.21-.96-7.95A3.767 3.767 0 0 0 15.34.75Zm-.03 2.4c1.38 0 1.83 1.92 1.83 7.98 0 5.79-.45 7.77-1.8 7.77-1.38 0-1.83-1.92-1.83-7.86s.45-7.89 1.8-7.89Zm9.93 3.21v-.6c0-1.74.54-2.67 1.56-2.67 1.05 0 1.56.99 1.56 3.12 0 2.49-.6 3.24-2.67 3.24h-.39v2.31c.33-.03.48-.06.69-.06 1.71 0 2.4.99 2.4 3.33 0 2.82-.51 3.84-1.86 3.84-1.02 0-1.68-.87-1.68-2.22a5.085 5.085 0 0 1 .03-.66h-2.55v.51a6.12 6.12 0 0 0 .96 3.48 3.648 3.648 0 0 0 3.15 1.26 4.414 4.414 0 0 0 3.39-1.26c.9-.99 1.29-2.34 1.29-4.62 0-2.91-.57-4.05-2.46-4.68 1.74-.72 2.22-1.77 2.22-4.71 0-3.63-1.29-5.22-4.23-5.22-2.79 0-3.96 1.5-3.96 5.07v.54ZM39.52.99V21h2.7v-8.88a7.829 7.829 0 0 0 3.06-.39c1.77-.69 2.67-2.46 2.67-5.28 0-2.37-.69-4.02-1.98-4.83a4.824 4.824 0 0 0-2.91-.63Zm2.7 8.82V3.27h.36c1.77 0 2.58 1.08 2.58 3.45 0 1.92-.78 3.03-2.13 3.06l-.57.03ZM50.11.99V21h7.11v-2.28h-4.41V.99Zm12.66 0L58.42 21H61l.78-3.9h3.96l.75 3.9h2.67L64.87.99Zm2.58 14.04h-3.21l.51-2.58c.51-2.64.87-5.04 1.14-7.56.15 1.62.6 4.95.96 6.93ZM78.43 1.32a3.918 3.918 0 0 0-2.25-.6c-4.05 0-6 3.45-6 10.62 0 6.63 2.01 9.93 6.06 9.93a3.639 3.639 0 0 0 2.19-.57v-2.46a3.082 3.082 0 0 1-1.59.42c-2.55 0-3.81-2.43-3.81-7.41a17.189 17.189 0 0 1 .75-5.85 3.2 3.2 0 0 1 2.91-2.16 3.562 3.562 0 0 1 1.74.51Zm2.25-.33V21h7.17v-2.28h-4.47v-6.81h3.96V9.63h-3.96V3.27h4.47V.99Z"/><path data-name="パス 2" d="M97.22 13.87h-1.23L95.11 21h1.23l.07-.51c.17.41.39.6.73.6.86 0 1.53-1.33 1.53-3.05 0-1.05-.32-1.6-.94-1.6a1.049 1.049 0 0 0-.9.64Zm-.13 3.69c.21 0 .32.26.32.71 0 .92-.28 1.7-.61 1.7-.2 0-.3-.23-.3-.7 0-.94.26-1.71.59-1.71Zm2-1.03.75 4.38-.99 2.29h1.2l2.71-6.67h-1.24l-.89 2.55a.719.719 0 0 0-.01-.18c-.01-.13-.02-.26-.04-.38l-.03-.36-.23-1.63Zm10.762 3.07a.732.732 0 0 1 .522.2.67.67 0 0 1 .21.51.656.656 0 0 1-.21.5.732.732 0 0 1-.522.2h-3.9a.709.709 0 0 1-.522-.21.709.709 0 0 1-.21-.522v-6.946a.7.7 0 0 1 .216-.522.759.759 0 0 1 .552-.21.721.721 0 0 1 .51.21.689.689 0 0 1 .222.522V19.8l-.264-.2Zm9.72-2.8a4.64 4.64 0 0 1-.3 1.68 4.278 4.278 0 0 1-.846 1.374 3.913 3.913 0 0 1-1.3.93 3.96 3.96 0 0 1-1.634.336 3.919 3.919 0 0 1-1.632-.336 3.93 3.93 0 0 1-1.29-.93 4.278 4.278 0 0 1-.846-1.374 4.64 4.64 0 0 1-.3-1.68 4.64 4.64 0 0 1 .3-1.68 4.278 4.278 0 0 1 .846-1.374 3.93 3.93 0 0 1 1.29-.93 3.919 3.919 0 0 1 1.632-.336 3.96 3.96 0 0 1 1.638.336 3.913 3.913 0 0 1 1.3.93 4.278 4.278 0 0 1 .846 1.374 4.64 4.64 0 0 1 .296 1.68Zm-1.56 0a3.239 3.239 0 0 0-.324-1.458 2.651 2.651 0 0 0-.888-1.042 2.268 2.268 0 0 0-1.308-.384 2.268 2.268 0 0 0-1.308.384 2.614 2.614 0 0 0-.884 1.036 3.28 3.28 0 0 0-.316 1.464 3.29 3.29 0 0 0 .316 1.458 2.605 2.605 0 0 0 .884 1.042 2.268 2.268 0 0 0 1.308.384 2.268 2.268 0 0 0 1.308-.384 2.651 2.651 0 0 0 .888-1.038 3.239 3.239 0 0 0 .324-1.462Zm7.572 2.8a.732.732 0 0 1 .522.2.67.67 0 0 1 .21.51.656.656 0 0 1-.21.5.732.732 0 0 1-.522.2h-3.9a.709.709 0 0 1-.522-.21.709.709 0 0 1-.21-.522v-6.946a.7.7 0 0 1 .216-.522.759.759 0 0 1 .552-.21.721.721 0 0 1 .51.21.689.689 0 0 1 .222.522V19.8l-.264-.2Zm6.744 0a.732.732 0 0 1 .522.2.67.67 0 0 1 .21.51.656.656 0 0 1-.21.5.732.732 0 0 1-.522.2h-3.9a.709.709 0 0 1-.522-.21.709.709 0 0 1-.21-.522v-6.946a.7.7 0 0 1 .216-.522.759.759 0 0 1 .552-.21.721.721 0 0 1 .51.21.689.689 0 0 1 .222.522V19.8l-.264-.2Zm3.612.672a.681.681 0 0 1-.228.522.756.756 0 0 1-.528.21.719.719 0 0 1-.54-.21.72.72 0 0 1-.2-.522v-6.94a.7.7 0 0 1 .216-.522.759.759 0 0 1 .552-.21.721.721 0 0 1 .51.21.689.689 0 0 1 .222.522Zm5.268-7.672a2.087 2.087 0 0 1 1.17.36 2.691 2.691 0 0 1 .882.972 2.8 2.8 0 0 1 .34 1.368 2.771 2.771 0 0 1-.336 1.356 2.744 2.744 0 0 1-.882.978 2.063 2.063 0 0 1-1.174.366H139l.12-.216v2.484a.745.745 0 0 1-.192.522.651.651 0 0 1-.5.21.637.637 0 0 1-.492-.21.745.745 0 0 1-.192-.522v-6.936a.709.709 0 0 1 .21-.522.709.709 0 0 1 .522-.21Zm0 4.032a.666.666 0 0 0 .444-.192 1.522 1.522 0 0 0 .36-.5 1.49 1.49 0 0 0 .144-.642 1.478 1.478 0 0 0-.144-.648 1.468 1.468 0 0 0-.36-.486.677.677 0 0 0-.444-.186h-2.232l.144-.216v3.06l-.132-.192Zm11.492.168a4.64 4.64 0 0 1-.3 1.68 4.278 4.278 0 0 1-.846 1.374 3.913 3.913 0 0 1-1.3.93 3.96 3.96 0 0 1-1.63.336 3.919 3.919 0 0 1-1.632-.336 3.931 3.931 0 0 1-1.29-.93 4.278 4.278 0 0 1-.846-1.374 4.64 4.64 0 0 1-.3-1.68 4.64 4.64 0 0 1 .3-1.68 4.278 4.278 0 0 1 .844-1.374 3.931 3.931 0 0 1 1.29-.93 3.919 3.919 0 0 1 1.632-.336 3.96 3.96 0 0 1 1.638.336 3.913 3.913 0 0 1 1.3.93 4.278 4.278 0 0 1 .84 1.374 4.64 4.64 0 0 1 .3 1.68Zm-1.56 0a3.239 3.239 0 0 0-.324-1.458 2.651 2.651 0 0 0-.884-1.042 2.268 2.268 0 0 0-1.308-.384 2.268 2.268 0 0 0-1.308.384 2.614 2.614 0 0 0-.882 1.032 3.28 3.28 0 0 0-.318 1.468 3.29 3.29 0 0 0 .318 1.458 2.605 2.605 0 0 0 .882 1.042 2.268 2.268 0 0 0 1.308.384 2.268 2.268 0 0 0 1.308-.384 2.651 2.651 0 0 0 .888-1.038 3.239 3.239 0 0 0 .324-1.462Zm6.408-4.2a2.087 2.087 0 0 1 1.17.36 2.691 2.691 0 0 1 .882.972 2.8 2.8 0 0 1 .34 1.368 2.771 2.771 0 0 1-.34 1.356 2.744 2.744 0 0 1-.882.978 2.063 2.063 0 0 1-1.166.366h-2.208l.12-.216v2.484a.745.745 0 0 1-.192.522.651.651 0 0 1-.5.21.637.637 0 0 1-.492-.21.745.745 0 0 1-.192-.522v-6.936a.709.709 0 0 1 .21-.522.709.709 0 0 1 .522-.21Zm0 4.032a.666.666 0 0 0 .452-.192 1.522 1.522 0 0 0 .36-.5 1.49 1.49 0 0 0 .14-.64 1.478 1.478 0 0 0-.144-.648 1.468 1.468 0 0 0-.356-.486.677.677 0 0 0-.444-.186h-2.236l.144-.216v3.06l-.132-.192Zm11.764 2.968a.732.732 0 0 1 .522.2.67.67 0 0 1 .21.51.656.656 0 0 1-.21.5.732.732 0 0 1-.522.2h-3.9a.709.709 0 0 1-.522-.21.709.709 0 0 1-.21-.522v-6.946a.7.7 0 0 1 .22-.522.759.759 0 0 1 .552-.21.721.721 0 0 1 .51.21.689.689 0 0 1 .222.522V19.8l-.264-.2Zm5.2-5.112-2.596 6.092a.738.738 0 0 1-.258.354.631.631 0 0 1-.378.126.6.6 0 0 1-.48-.18.654.654 0 0 1-.156-.444.794.794 0 0 1 .036-.228l2.988-7.176a.783.783 0 0 1 .294-.372.629.629 0 0 1 .426-.108.7.7 0 0 1 .4.126.711.711 0 0 1 .27.354l2.954 7.032a.807.807 0 0 1 .06.288.665.665 0 0 1-.21.516.671.671 0 0 1-.462.192.629.629 0 0 1-.39-.132.858.858 0 0 1-.27-.36l-2.58-6.012Zm-2.22 4.632.66-1.38h3.24l.228 1.38Zm12.644-6.532a.651.651 0 0 1 .5.21.745.745 0 0 1 .192.522v4.344a3.576 3.576 0 0 1-.426 1.764 3.1 3.1 0 0 1-1.17 1.2 3.379 3.379 0 0 1-1.724.432 3.412 3.412 0 0 1-1.734-.432 3.083 3.083 0 0 1-1.176-1.2 3.576 3.576 0 0 1-.426-1.764V13.32a.7.7 0 0 1 .216-.522.759.759 0 0 1 .552-.21.707.707 0 0 1 .5.21.689.689 0 0 1 .222.522v4.344a2.009 2.009 0 0 0 .256 1.036 1.823 1.823 0 0 0 .684.678 1.817 1.817 0 0 0 .906.24 1.987 1.987 0 0 0 .96-.24 1.918 1.918 0 0 0 .72-.678 1.906 1.906 0 0 0 .276-1.038V13.32a.774.774 0 0 1 .18-.522.614.614 0 0 1 .492-.21Zm8.864.012a.612.612 0 0 1 .468.192.675.675 0 0 1 .18.48v7a.709.709 0 0 1-.21.522.709.709 0 0 1-.518.206 1 1 0 0 1-.32-.054.549.549 0 0 1-.246-.15l-4.714-5.988.312-.192v5.712a.662.662 0 0 1-.186.48.646.646 0 0 1-.486.192.612.612 0 0 1-.468-.192.675.675 0 0 1-.18-.48v-7a.709.709 0 0 1 .21-.522.709.709 0 0 1 .522-.21 1.009 1.009 0 0 1 .348.066.506.506 0 0 1 .264.2l4.572 5.838-.2.144v-5.572a.675.675 0 0 1 .18-.48.627.627 0 0 1 .472-.192Zm8.328.408a.637.637 0 0 1 .366.492.739.739 0 0 1-.174.612.546.546 0 0 1-.4.24.934.934 0 0 1-.5-.1 3.085 3.085 0 0 0-.606-.2 3.008 3.008 0 0 0-.666-.072 3.1 3.1 0 0 0-1.158.2 2.43 2.43 0 0 0-.87.582 2.516 2.516 0 0 0-.546.894 3.341 3.341 0 0 0-.186 1.14 3.5 3.5 0 0 0 .21 1.272 2.484 2.484 0 0 0 .582.9 2.341 2.341 0 0 0 .876.534 3.325 3.325 0 0 0 1.092.174 3.552 3.552 0 0 0 .648-.06 2.224 2.224 0 0 0 .624-.216.853.853 0 0 1 .5-.084.628.628 0 0 1 .414.252.724.724 0 0 1 .174.618.632.632 0 0 1-.366.462 4.22 4.22 0 0 1-.642.258 4.869 4.869 0 0 1-.666.156 4.3 4.3 0 0 1-.684.054 4.84 4.84 0 0 1-1.638-.276 4.148 4.148 0 0 1-1.38-.816 3.772 3.772 0 0 1-.954-1.35 4.724 4.724 0 0 1-.348-1.878 4.471 4.471 0 0 1 .318-1.7 3.957 3.957 0 0 1 .9-1.35 4.15 4.15 0 0 1 1.374-.888 4.6 4.6 0 0 1 1.728-.318 4.44 4.44 0 0 1 1.032.12 4.192 4.192 0 0 1 .95.348Zm2.412-.408a.721.721 0 0 1 .51.21.689.689 0 0 1 .222.522v6.936a.681.681 0 0 1-.228.522.756.756 0 0 1-.528.21.719.719 0 0 1-.54-.21.72.72 0 0 1-.2-.522v-6.936a.7.7 0 0 1 .216-.522.759.759 0 0 1 .552-.21Zm5.316 0a.719.719 0 0 1 .54.21.72.72 0 0 1 .2.522v6.936a.709.709 0 0 1-.21.522.754.754 0 0 1-.558.21.721.721 0 0 1-.51-.21.689.689 0 0 1-.222-.522v-6.936a.681.681 0 0 1 .228-.522.756.756 0 0 1 .536-.21Zm-5.352 3.492h5.352v1.38h-5.352Zm8.632-3.492h4.02a.732.732 0 0 1 .522.2.67.67 0 0 1 .21.51.618.618 0 0 1-.21.486.759.759 0 0 1-.522.186H213.8l.108-.2v2.34l-.1-.1h2.808a.732.732 0 0 1 .522.2.67.67 0 0 1 .21.51.618.618 0 0 1-.21.486.759.759 0 0 1-.522.186h-2.772l.06-.1v2.424l-.1-.108h3.348a.709.709 0 0 1 .522.21.667.667 0 0 1 .21.486.637.637 0 0 1-.21.492.745.745 0 0 1-.522.192h-4.02a.709.709 0 0 1-.522-.21.709.709 0 0 1-.21-.522v-6.936a.709.709 0 0 1 .21-.522.709.709 0 0 1 .526-.21Zm7 8.4a.938.938 0 0 1-.6-.21.642.642 0 0 1-.264-.522v-6.936a.709.709 0 0 1 .21-.522.709.709 0 0 1 .518-.21h3.456a2.223 2.223 0 0 1 1.17.33 2.508 2.508 0 0 1 .882.912 2.628 2.628 0 0 1 .336 1.338 2.224 2.224 0 0 1-.186.888 2.775 2.775 0 0 1-.5.78 2.357 2.357 0 0 1-.714.54l.012-.276a2.038 2.038 0 0 1 .558.426 2.012 2.012 0 0 1 .348.528 1.8 1.8 0 0 1 .15.606q.048.3.066.528a1.565 1.565 0 0 0 .072.384.425.425 0 0 0 .21.24.675.675 0 0 1 .33.45.559.559 0 0 1-.138.522.581.581 0 0 1-.336.2 1 1 0 0 1-.408 0 1.219 1.219 0 0 1-.336-.114 1.7 1.7 0 0 1-.408-.354 1.761 1.761 0 0 1-.33-.63 3.435 3.435 0 0 1-.126-1.02.979.979 0 0 0-.072-.378.869.869 0 0 0-.2-.3.862.862 0 0 0-.336-.192 1.564 1.564 0 0 0-.48-.066h-2.424l.18-.276v2.6a.809.809 0 0 1-.168.522.566.566 0 0 1-.476.212Zm.468-4.3h2.8a.6.6 0 0 0 .42-.2 1.485 1.485 0 0 0 .336-.54 2.066 2.066 0 0 0 .132-.75 1.371 1.371 0 0 0-.292-.876.787.787 0 0 0-.606-.354h-2.772l.144-.384v3.4Z"/></g></svg>
