<svg xmlns="http://www.w3.org/2000/svg" width="68" height="19"><defs><clipPath id="a"><path d="M0 0h68v19H0z"/></clipPath></defs><g data-name="カスタムサイズ – 1" clip-path="url(#a)" fill="#fff"><path data-name="パス 1" d="M11.376 16.1a.969.969 0 01.7.276.909.909 0 01.288.684.872.872 0 01-.288.672.993.993 0 01-.7.264h-8.3a.909.909 0 01-.684-.288.969.969 0 01-.276-.7V2.16a.909.909 0 01.288-.684 1 1 0 01.72-.276.969.969 0 01.7.276.909.909 0 01.288.684v14.376l-.488-.436zm13.008 0a.969.969 0 01.7.276.909.909 0 01.288.684.872.872 0 01-.288.672.993.993 0 01-.7.264h-8.3a.909.909 0 01-.684-.284.969.969 0 01-.276-.7V2.16a.909.909 0 01.288-.684 1 1 0 01.72-.276.969.969 0 01.7.276.909.909 0 01.288.684v14.376l-.48-.432zm8.308-.414l.49 2.314h.854l-2.38-10H31l-2.382 10h.854l.49-2.31zm-.14-.658H30.1l1.218-5.81zM38.138 18h.6V8h-.756v3.63a1.291 1.291 0 00-1.246-.714c-1.148 0-1.694.812-1.694 2.534v2.03c0 1.778.56 2.646 1.708 2.646a1.364 1.364 0 001.33-.77zM35.8 13.422c0-1.2.364-1.834 1.05-1.834.77 0 1.134.8 1.134 2.436V15c0 1.652-.364 2.45-1.12 2.45-.714 0-1.064-.644-1.064-1.918zM40.518 18h.756v-4.088c0-1.652.308-2.324 1.064-2.324.658 0 .9.518.9 1.932V18h.756v-4.158c0-1.568.322-2.254 1.064-2.254.672 0 .91.518.91 1.932V18h.756v-4.55a5.106 5.106 0 00-.14-1.456 1.371 1.371 0 00-1.386-1.078 1.379 1.379 0 00-1.372.9 1.322 1.322 0 00-1.33-.9 1.321 1.321 0 00-1.33.812l-.056-.686h-.588zm7.952-8.694h.756V7.99h-.756zm0 8.694h.756v-6.958h-.756zm2.548 0h.756v-4.088c0-1.652.322-2.324 1.134-2.324.728 0 .994.518.994 1.932V18h.756v-4.55a5.106 5.106 0 00-.14-1.456 1.442 1.442 0 00-1.47-1.078 1.415 1.415 0 00-1.386.812l-.056-.686h-.588zm7.728-10v7.4a3.155 3.155 0 00.308 1.75 1.963 1.963 0 001.89.966 1.961 1.961 0 001.806-.84 3.074 3.074 0 00.378-1.876V8h-.784v7.4a3.2 3.2 0 01-.182 1.3 1.191 1.191 0 01-1.218.742 1.216 1.216 0 01-1.19-.644 2.777 2.777 0 01-.224-1.4V8zm6.426 10h.784V8h-.784z"/><path data-name="パス 2" d="M26.684 1.91a.456.456 0 01.251.071.5.5 0 01.176.2.612.612 0 01.065.288.618.618 0 01-.065.289.508.508 0 01-.174.2.439.439 0 01-.245.062.427.427 0 01-.15-.026.48.48 0 01-.123-.066.378.378 0 01-.082-.081.129.129 0 01-.029-.069l.062-.026v.526a.12.12 0 01-.034.087.115.115 0 01-.086.035.117.117 0 01-.086-.034.119.119 0 01-.034-.088V2.052a.12.12 0 01.034-.087.115.115 0 01.086-.035.115.115 0 01.086.035.12.12 0 01.034.087v.1l-.034-.02a.113.113 0 01.028-.063A.4.4 0 0126.44 2a.433.433 0 01.111-.061.37.37 0 01.133-.029zm-.03.22a.271.271 0 00-.154.044.3.3 0 00-.1.119.382.382 0 00-.04.171.39.39 0 00.04.171.3.3 0 00.1.121.271.271 0 00.154.044.266.266 0 00.153-.044.3.3 0 00.1-.121.39.39 0 00.039-.171.382.382 0 00-.037-.171.3.3 0 00-.1-.119.266.266 0 00-.155-.044zm1.746.336a.562.562 0 01-.073.289.524.524 0 01-.2.2.546.546 0 01-.267.065.546.546 0 01-.275-.07.524.524 0 01-.2-.2.562.562 0 01-.073-.289.562.562 0 01.073-.289.532.532 0 01.2-.2.54.54 0 01.275-.062.54.54 0 01.275.071.532.532 0 01.2.2.562.562 0 01.065.285zm-.24 0a.364.364 0 00-.041-.177.305.305 0 00-.11-.117.289.289 0 00-.149-.042.289.289 0 00-.153.042.305.305 0 00-.11.117.364.364 0 00-.041.177.359.359 0 00.044.175.305.305 0 00.11.117.289.289 0 00.15.042.289.289 0 00.153-.042.305.305 0 00.11-.117.359.359 0 00.041-.175zm1.676-.536a.108.108 0 01.08.035.122.122 0 01.034.089.141.141 0 010 .025.109.109 0 01-.008.021l-.306.824a.111.111 0 01-.05.061.113.113 0 01-.076.015.117.117 0 01-.1-.076l-.2-.57h.052l-.186.568a.117.117 0 01-.1.076.113.113 0 01-.076-.013.11.11 0 01-.051-.061l-.307-.824a.134.134 0 01-.008-.046.13.13 0 01.032-.086.109.109 0 01.088-.038.13.13 0 01.068.018.1.1 0 01.042.058l.242.656h-.05l.182-.494a.112.112 0 01.11-.074.1.1 0 01.067.019.131.131 0 01.037.055l.182.494-.06.008.246-.66a.108.108 0 01.116-.08zm.8 1.09a.587.587 0 01-.3-.071.49.49 0 01-.192-.193.564.564 0 01-.064-.276.607.607 0 01.073-.307.516.516 0 01.191-.195.493.493 0 01.25-.068.455.455 0 01.193.042.528.528 0 01.161.115.559.559 0 01.111.169.514.514 0 01.041.2.1.1 0 01-.038.078.127.127 0 01-.084.03h-.764l-.06-.2h.734l-.044.04v-.05a.182.182 0 00-.044-.104.268.268 0 00-.092-.073.262.262 0 00-.114-.027.379.379 0 00-.112.016.215.215 0 00-.09.054.262.262 0 00-.06.1.506.506 0 00-.022.162.35.35 0 00.045.183.307.307 0 00.116.114.309.309 0 00.151.041.465.465 0 00.118-.012.265.265 0 00.071-.029l.049-.029a.153.153 0 01.068-.018.1.1 0 01.072.03.1.1 0 01.029.07.125.125 0 01-.056.1.464.464 0 01-.146.077.582.582 0 01-.193.031zM31.42 3a.115.115 0 01-.086-.035.12.12 0 01-.034-.087v-.826a.12.12 0 01.034-.087.115.115 0 01.086-.035.115.115 0 01.086.035.12.12 0 01.034.087v.188l-.014-.134a.312.312 0 01.057-.085.338.338 0 01.079-.062.359.359 0 01.094-.037.427.427 0 01.1-.012.153.153 0 01.1.034.1.1 0 01.044.08.119.119 0 01-.034.1.112.112 0 01-.074.029.166.166 0 01-.069-.014.171.171 0 00-.073-.019.174.174 0 00-.073.017.2.2 0 00-.068.053.279.279 0 00-.05.089.371.371 0 00-.019.121v.474a.12.12 0 01-.034.087.115.115 0 01-.086.039zm1.2.02a.587.587 0 01-.3-.071.49.49 0 01-.192-.193.564.564 0 01-.064-.276.607.607 0 01.073-.307.516.516 0 01.191-.195.493.493 0 01.25-.068.455.455 0 01.193.042.528.528 0 01.161.115.559.559 0 01.111.169.514.514 0 01.041.2.1.1 0 01-.038.078.127.127 0 01-.084.03H32.2l-.06-.2h.734l-.044.04v-.05a.182.182 0 00-.041-.1.268.268 0 00-.092-.073.262.262 0 00-.119-.031.379.379 0 00-.112.016.215.215 0 00-.09.054.262.262 0 00-.06.1.506.506 0 00-.022.162.35.35 0 00.045.183.307.307 0 00.116.114.309.309 0 00.151.041.465.465 0 00.118-.012.265.265 0 00.076-.029l.044-.029a.153.153 0 01.068-.018.1.1 0 01.073.03.1.1 0 01.029.07.125.125 0 01-.056.1.464.464 0 01-.146.077.582.582 0 01-.194.031zm1.53-1.5a.117.117 0 01.086.034.119.119 0 01.034.088v1.236a.12.12 0 01-.034.087.115.115 0 01-.086.035.115.115 0 01-.086-.035.12.12 0 01-.034-.087v-.1l.044.022a.113.113 0 01-.028.063.381.381 0 01-.076.073.466.466 0 01-.113.064.389.389 0 01-.141.02.457.457 0 01-.25-.071.5.5 0 01-.177-.2.613.613 0 01-.065-.287.618.618 0 01.065-.289.5.5 0 01.175-.2.441.441 0 01.244-.071.462.462 0 01.158.026.472.472 0 01.125.072.378.378 0 01.082.081.129.129 0 01.027.071l-.07.026v-.536a.12.12 0 01.034-.087.115.115 0 01.086-.035zm-.404 1.28a.271.271 0 00.154-.044.3.3 0 00.1-.12.383.383 0 00.037-.17.388.388 0 00-.037-.172.3.3 0 00-.1-.12.271.271 0 00-.154-.044.268.268 0 00-.152.044.3.3 0 00-.1.12.388.388 0 00-.037.172.383.383 0 00.037.17.3.3 0 00.1.12.268.268 0 00.152.044zm1.9-.89a.456.456 0 01.251.071.5.5 0 01.176.2.612.612 0 01.065.288.618.618 0 01-.065.289.508.508 0 01-.174.2.439.439 0 01-.247.062.427.427 0 01-.152-.026.48.48 0 01-.123-.066.378.378 0 01-.077-.081.129.129 0 01-.029-.069l.059-.026V2.9a.12.12 0 01-.03.085.115.115 0 01-.09.035.117.117 0 01-.086-.034.119.119 0 01-.034-.086V1.642a.12.12 0 01.034-.087.115.115 0 01.086-.035.115.115 0 01.086.035.12.12 0 01.034.087v.508l-.03-.018a.113.113 0 01.028-.063A.4.4 0 0135.4 2a.433.433 0 01.111-.061.37.37 0 01.133-.029zm-.03.22a.271.271 0 00-.154.044.3.3 0 00-.1.119.382.382 0 00-.037.171.39.39 0 00.037.171.3.3 0 00.1.121.271.271 0 00.152.044.266.266 0 00.153-.044.3.3 0 00.1-.121.39.39 0 00.037-.171.382.382 0 00-.037-.171.3.3 0 00-.1-.119.266.266 0 00-.153-.044zm1.516-.2a.115.115 0 01.086.035.12.12 0 01.034.087V2.9a.543.543 0 01-.069.293.392.392 0 01-.183.159.674.674 0 01-.26.048.991.991 0 01-.14-.01.458.458 0 01-.118-.03.171.171 0 01-.082-.065.1.1 0 01-.01-.083.125.125 0 01.058-.079.1.1 0 01.084 0q.032.01.084.031a.319.319 0 00.12.021.406.406 0 00.153-.025.177.177 0 00.092-.084.349.349 0 00.031-.161v-.139l.042.048a.35.35 0 01-.085.109.346.346 0 01-.121.067.534.534 0 01-.16.022.344.344 0 01-.188-.051.333.333 0 01-.123-.136.435.435 0 01-.044-.2v-.583a.12.12 0 01.034-.087.115.115 0 01.086-.035.115.115 0 01.086.035.12.12 0 01.034.087v.512a.242.242 0 00.057.183.225.225 0 00.159.053.238.238 0 00.118-.027.18.18 0 00.074-.08.291.291 0 00.026-.129v-.512a.12.12 0 01.034-.087.115.115 0 01.089-.035zm-9.286 4.6a.244.244 0 01.174.066.223.223 0 01.07.17.219.219 0 01-.07.166.244.244 0 01-.176.068h-1.3a.239.239 0 01-.244-.244V4.444a.233.233 0 01.072-.174.253.253 0 01.184-.07.24.24 0 01.17.07.23.23 0 01.074.174V6.6l-.088-.068zm3.238-.93a1.547 1.547 0 01-.1.56 1.426 1.426 0 01-.282.458 1.3 1.3 0 01-.432.31 1.32 1.32 0 01-.546.112 1.3 1.3 0 01-.974-.422 1.426 1.426 0 01-.282-.458 1.618 1.618 0 010-1.12 1.426 1.426 0 01.282-.458 1.33 1.33 0 011.952 0 1.426 1.426 0 01.282.458 1.547 1.547 0 01.1.56zm-.52 0a1.08 1.08 0 00-.108-.486.884.884 0 00-.3-.346.807.807 0 00-.872 0 .871.871 0 00-.294.344 1.093 1.093 0 00-.106.488 1.1 1.1 0 00.106.486.868.868 0 00.294.346.807.807 0 00.872 0 .884.884 0 00.3-.346 1.08 1.08 0 00.108-.486zm2.524.932a.244.244 0 01.174.066.223.223 0 01.07.17.219.219 0 01-.07.166.244.244 0 01-.174.066h-1.3a.239.239 0 01-.244-.244V4.444a.233.233 0 01.072-.174.253.253 0 01.184-.07.24.24 0 01.17.07.23.23 0 01.074.174V6.6l-.088-.068zm2.248 0a.244.244 0 01.174.068.223.223 0 01.07.17.219.219 0 01-.07.166.244.244 0 01-.174.064h-1.3a.239.239 0 01-.244-.244V4.444a.233.233 0 01.072-.174.253.253 0 01.184-.07.24.24 0 01.17.07.23.23 0 01.074.174V6.6l-.092-.068zm1.2.224a.227.227 0 01-.076.174.252.252 0 01-.176.07.236.236 0 01-.248-.244V4.444a.233.233 0 01.072-.174.253.253 0 01.192-.07.24.24 0 01.17.07.23.23 0 01.074.174zM38.3 4.2a.7.7 0 01.39.12.9.9 0 01.294.324.932.932 0 01.112.456.931.931 0 01-.406.778.688.688 0 01-.39.122h-.74l.04-.072v.828a.248.248 0 01-.064.174.217.217 0 01-.168.07.212.212 0 01-.164-.07.248.248 0 01-.064-.174V4.444a.239.239 0 01.244-.244zm0 1.344a.222.222 0 00.148-.064.507.507 0 00.12-.166.505.505 0 000-.43.489.489 0 00-.12-.162.226.226 0 00-.148-.062h-.744l.048-.072v1.02l-.044-.064zm3.832.056a1.547 1.547 0 01-.1.56 1.426 1.426 0 01-.282.458 1.3 1.3 0 01-.432.31 1.32 1.32 0 01-.546.112 1.3 1.3 0 01-.974-.422 1.426 1.426 0 01-.282-.458 1.618 1.618 0 010-1.12 1.426 1.426 0 01.282-.458 1.33 1.33 0 011.952 0 1.426 1.426 0 01.282.458 1.547 1.547 0 01.096.56zm-.52 0a1.08 1.08 0 00-.108-.486.884.884 0 00-.3-.346.807.807 0 00-.872 0 .871.871 0 00-.294.344 1.093 1.093 0 00-.106.488 1.1 1.1 0 00.106.486.868.868 0 00.294.346.807.807 0 00.872 0 .884.884 0 00.3-.346 1.08 1.08 0 00.104-.486zm2.136-1.4a.7.7 0 01.39.12.9.9 0 01.294.324.932.932 0 01.112.456.931.931 0 01-.406.778.688.688 0 01-.39.122h-.736l.04-.072v.828a.248.248 0 01-.064.174.217.217 0 01-.168.07.212.212 0 01-.164-.07.248.248 0 01-.064-.174V4.444a.239.239 0 01.244-.244zm0 1.344a.222.222 0 00.148-.064.507.507 0 00.12-.166.506.506 0 000-.43.489.489 0 00-.12-.162.226.226 0 00-.148-.062H43l.048-.072v1.02L43 5.544zm3.92.988a.244.244 0 01.174.066.223.223 0 01.07.17.219.219 0 01-.07.166.244.244 0 01-.178.066h-1.3a.239.239 0 01-.244-.244V4.444a.233.233 0 01.072-.174.253.253 0 01.184-.07.24.24 0 01.17.07.23.23 0 01.074.174V6.6l-.088-.068zm1.732-1.7l-.868 2.028a.246.246 0 01-.086.118.21.21 0 01-.126.042.2.2 0 01-.16-.06.218.218 0 01-.052-.148.265.265 0 01.012-.076l1-2.392a.261.261 0 01.1-.124.21.21 0 01.142-.036.234.234 0 01.134.042.237.237 0 01.09.118l.984 2.344a.269.269 0 01.02.1.229.229 0 01-.224.236.21.21 0 01-.13-.044.286.286 0 01-.09-.12l-.86-2zm-.74 1.544l.22-.46h1.08l.076.46zM52.872 4.2a.217.217 0 01.168.07.248.248 0 01.064.174v1.444a1.192 1.192 0 01-.142.588 1.032 1.032 0 01-.39.4 1.228 1.228 0 01-1.154 0 1.028 1.028 0 01-.392-.4 1.192 1.192 0 01-.142-.588V4.44a.233.233 0 01.072-.174.253.253 0 01.184-.07.236.236 0 01.166.07.23.23 0 01.074.174v1.448a.67.67 0 00.086.346.614.614 0 00.534.306.662.662 0 00.32-.08.627.627 0 00.332-.572V4.44a.258.258 0 01.06-.174.2.2 0 01.16-.066zm2.956 0a.2.2 0 01.156.064.225.225 0 01.06.16v2.332A.239.239 0 0155.8 7a.334.334 0 01-.106-.018.183.183 0 01-.082-.05l-1.572-2 .1-.064v1.9a.221.221 0 01-.062.16.215.215 0 01-.158.072.2.2 0 01-.156-.064.225.225 0 01-.06-.16V4.444a.239.239 0 01.244-.244.336.336 0 01.116.022.169.169 0 01.088.066l1.524 1.944-.068.048V4.424a.225.225 0 01.06-.16.209.209 0 01.16-.064zm2.776.136a.212.212 0 01.122.164.246.246 0 01-.058.2.182.182 0 01-.134.08.311.311 0 01-.166-.032 1.028 1.028 0 00-.2-.068 1 1 0 00-.222-.024 1.032 1.032 0 00-.386.068.81.81 0 00-.29.194.839.839 0 00-.182.3 1.114 1.114 0 00-.062.38 1.167 1.167 0 00.07.424.828.828 0 00.194.3.78.78 0 00.292.178 1.108 1.108 0 00.364.058 1.184 1.184 0 00.216-.02.741.741 0 00.208-.072.284.284 0 01.166-.028.209.209 0 01.138.084.241.241 0 01.058.206.211.211 0 01-.122.154 1.407 1.407 0 01-.214.086 1.623 1.623 0 01-.222.052 1.435 1.435 0 01-.228.018 1.613 1.613 0 01-.546-.092 1.383 1.383 0 01-.46-.272 1.257 1.257 0 01-.318-.45A1.575 1.575 0 0156.5 5.6a1.49 1.49 0 01.106-.568 1.319 1.319 0 01.3-.45 1.383 1.383 0 01.458-.3 1.532 1.532 0 01.576-.106 1.48 1.48 0 01.344.04 1.4 1.4 0 01.316.12zm.8-.136a.24.24 0 01.17.07.23.23 0 01.074.174v2.312a.227.227 0 01-.076.174.252.252 0 01-.172.07.236.236 0 01-.248-.244V4.444a.233.233 0 01.072-.174.253.253 0 01.184-.07zm1.772 0a.236.236 0 01.248.244v2.312a.236.236 0 01-.07.174.251.251 0 01-.186.07.24.24 0 01-.168-.07.23.23 0 01-.074-.174V4.444A.227.227 0 0161 4.27a.252.252 0 01.18-.07zM59.4 5.364h1.78v.46H59.4zM62.272 4.2h1.34a.244.244 0 01.174.066.223.223 0 01.07.17.206.206 0 01-.07.162.253.253 0 01-.174.062h-1.12l.036-.068v.78L62.5 5.34h.936a.244.244 0 01.174.066.223.223 0 01.07.17.206.206 0 01-.07.162.253.253 0 01-.174.062h-.924l.02-.032v.808L62.5 6.54h1.116a.236.236 0 01.174.07.222.222 0 01.07.162.212.212 0 01-.07.164.248.248 0 01-.178.064h-1.34a.239.239 0 01-.244-.244V4.444a.239.239 0 01.244-.244zM64.6 7a.313.313 0 01-.2-.07.214.214 0 01-.088-.174V4.444a.239.239 0 01.248-.244h1.152a.741.741 0 01.39.11.836.836 0 01.294.3.876.876 0 01.112.446.742.742 0 01-.062.3.925.925 0 01-.168.26.786.786 0 01-.238.18v-.092a.68.68 0 01.186.142.671.671 0 01.116.176.6.6 0 01.05.2q.016.1.022.176a.522.522 0 00.024.128.142.142 0 00.07.08.225.225 0 01.11.15.186.186 0 01-.046.174.194.194 0 01-.108.07.334.334 0 01-.136 0 .406.406 0 01-.112-.038.566.566 0 01-.136-.118.587.587 0 01-.11-.21 1.145 1.145 0 01-.042-.34.326.326 0 00-.024-.126.277.277 0 00-.18-.168.521.521 0 00-.16-.022h-.808l.06-.092v.868a.27.27 0 01-.056.174.189.189 0 01-.16.072zm.156-1.432h.932a.2.2 0 00.14-.066.5.5 0 00.112-.18.689.689 0 00.044-.25.457.457 0 00-.094-.294.262.262 0 00-.2-.118h-.924l.048-.128v1.132z" opacity=".7"/></g></svg>
